PathFileType	4	(X/Y/Z)	C:/Users/opensim2020/Desktop/walking_exp_matlab/subject02_walking15_straight_02.trc																																																																																																																												
DataRate	CameraRate	NumFrames	NumMarkers	Units	OrigDataRate	OrigDataStartFrame	OrigNumFrames																																																																																																																								
100	100	4	42	mm	100	994	142																																																																																																																								
Frame#	Time	LFHD			RFHD			LBHD			RBHD			C7			T10			CLAV			STRN			RBAK			LSHO			LUPA			LELB			LFRM			LWRA			LWRB			LFIN			RSHO			RUPA			RELB			RFRM			RWRA			RWRB			RFIN			LASI			RASI			LPSI			RPSI			LTHI			LKNE			LTIB			LANK			LHEE			LTOE			RTHI			RKNE			RTIB			RANK			RHEE			RTOE			*39			*40			*41		
		X1	Y1	Z1	X2	Y2	Z2	X3	Y3	Z3	X4	Y4	Z4	X5	Y5	Z5	X6	Y6	Z6	X7	Y7	Z7	X8	Y8	Z8	X9	Y9	Z9	X10	Y10	Z10	X11	Y11	Z11	X12	Y12	Z12	X13	Y13	Z13	X14	Y14	Z14	X15	Y15	Z15	X16	Y16	Z16	X17	Y17	Z17	X18	Y18	Z18	X19	Y19	Z19	X20	Y20	Z20	X21	Y21	Z21	X22	Y22	Z22	X23	Y23	Z23	X24	Y24	Z24	X25	Y25	Z25	X26	Y26	Z26	X27	Y27	Z27	X28	Y28	Z28	X29	Y29	Z29	X30	Y30	Z30	X31	Y31	Z31	X32	Y32	Z32	X33	Y33	Z33	X34	Y34	Z34	X35	Y35	Z35	X36	Y36	Z36	X37	Y37	Z37	X38	Y38	Z38	X39	Y39	Z39	X40	Y40	Z40	X41	Y41	Z41	X42	Y42	Z42
																																																																																																																															
125	1.24	730.25269	1730.96082	979.88873	736.63385	1718.12427	1122.43494	595.68781	1663.14502	982.31842	590.16235	1649.41309	1124.55103	538.94629	1524.1106	1057.58252	488.98532	1247.63403	1083.78674	678.76263	1458.08728	1040.33081	735.65094	1289.19055	1058.44177	486.94519	1354.71204	1138.87488	596.58539	1489.68005	875.4328	566.75903	1296.33606	788.23407	555.17279	1157.01172	763.05402	573.82043	1024.43457	745.73273	641.55072	903.67212	772.18237	594.49957	902.64136	741.10419	620.58636	841.5166	735.83197	627.49286	1504.50476	1237.07434	621.94427	1323.91931	1343.92102	649.83673	1181.00476	1375.97827	698.67731	1071.85364	1399.28894	764.58087	953.27441	1383.94043	723.35101	945.86749	1421.77173	771.59912	892.42975	1426.23743	728.95923	989.90796	963.68488	724.68689	985.67694	1216.84216	516.45215	1029.02942	1039.6875	512.83313	1036.6438	1155.08887	739.72919	683.89349	905.1402	775.43768	494.80762	936.46259	692.14734	323.96744	960.7182	662.35132	105.7467	1008.37244	639.90302	82.44118	1070.57446	795.66125	49.75991	961.34351	636.96869	674.2417	1283.90027	622.67999	463.05276	1246.47009	564.29016	284.11176	1262.06311	524.9093	93.65828	1230.42993	480.75565	40.21116	1180.70081	674.40948	34.97677	1234.62769	635.96436	1804.43469	1070.73132	-2845.34399	1034.15564	3360.3999	NaN	NaN	NaN
126	1.25	743.57758	1729.24341	977.77667	750.54346	1716.94336	1120.30664	608.93628	1661.99414	981.03033	603.85822	1648.65027	1123.33057	552.20905	1523.3584	1056.81567	501.37454	1246.98901	1082.55176	691.64532	1456.79956	1038.97375	748.34686	1287.88879	1057.5769	500.29745	1353.9751	1138.40369	608.97046	1488.23621	874.34186	575.78876	1295.01135	787.96552	561.03082	1156.25256	763.29736	574.0788	1023.69049	744.53278	636.14679	899.2478	768.5224	588.73328	900.86133	738.14172	611.63934	838.54254	731.87262	641.70715	1503.70386	1235.6936	638.38831	1323.75244	1343.35303	668.67548	1181.12183	1375.86267	721.03522	1073.09058	1397.55249	790.43835	956.97198	1380.19092	749.94098	947.87439	1418.57434	800.06165	896.14551	1421.80469	742.93878	989.05096	963.6239	735.16705	984.15063	1217.20313	529.17407	1028.32336	1036.83167	524.09583	1035.75586	1152.21375	754.95618	684.56445	904.0014	790.47095	493.46518	936.71313	717.58057	316.91782	963.60681	703.53705	96.95171	1011.7796	683.97766	72.39613	1074.69055	839.33289	50.50217	962.11768	643.66504	673.51855	1282.54578	627.4231	462.30121	1245.47205	566.71948	284.12885	1261.33044	525.41034	94.04231	1229.91772	480.86038	40.56522	1180.18823	674.49548	34.9232	1234.73669	650.0899	1803.55774	1069.06152	NaN	NaN	NaN	NaN	NaN	NaN
127	1.26	756.89673	1727.229	975.48499	764.42365	1715.39185	1118.14819	622.00885	1660.50012	979.52625	617.35248	1647.3606	1121.21851	565.40515	1522.50806	1056.22742	513.84363	1245.92651	1081.04114	704.8797	1455.32874	1037.45032	760.94366	1286.20947	1056.58643	513.2359	1353.34827	1138.18286	621.41656	1486.48376	873.18304	585.45007	1293.54871	787.75177	567.42743	1155.4801	763.65424	574.27765	1022.95844	743.41827	630.82288	895.3468	764.98993	582.85382	899.59094	735.24286	603.1261	836.37054	727.93439	655.97705	1502.79749	1234.38562	654.6535	1323.39087	1342.6012	687.24792	1181.03784	1375.57397	743.1062	1074.31226	1395.59229	815.89337	960.87408	1376.24414	776.28052	950.00983	1415.06177	828.3288	900.0163	1417.13123	756.70526	987.86298	963.26715	745.95978	982.45502	1217.39319	542.0321	1027.22546	1033.86963	535.46271	1034.42847	1149.19604	768.16571	684.42944	902.71967	804.4502	491.35281	937.30731	742.39301	310.12531	966.98462	744.41449	89.38734	1014.67975	728.00397	63.69913	1077.90894	881.46832	52.16658	961.36615	650.70215	672.75977	1281.44348	632.50452	461.60562	1244.8822	569.56891	284.12018	1260.44043	525.99683	94.34181	1229.20215	481.47589	40.70693	1179.25916	674.72485	34.93377	1234.88953	664.06543	1802.22742	1067.22021	-2846.07446	1034.41785	3356.94482	NaN	NaN	NaN
128	1.27	769.96313	1725.47852	973.1015	778.29346	1713.60608	1115.81018	635.49255	1658.82019	977.82428	631.23798	1646.13733	1120.1947	578.51093	1520.93018	1055.20569	526.45007	1244.46484	1079.20166	717.59747	1453.32336	1036.01453	773.5899	1284.2804	1055.45984	526.54993	1351.90491	1136.92444	633.77789	1484.60071	871.99316	594.31891	1291.65576	787.57422	573.73932	1154.3313	763.90076	574.31213	1022.45148	742.3634	625.72412	892.11829	761.67529	577.7088	898.95514	732.62537	593.65002	834.8045	724.24402	669.79968	1501.58362	1232.64038	670.73346	1322.85669	1341.71619	705.46808	1180.79199	1375.08862	764.80627	1075.50391	1393.49036	841.04871	964.849	1372.18738	802.43256	952.03583	1410.82849	856.06903	904.16187	1412.18335	770.40961	986.23431	962.59351	757.15125	980.61127	1217.40222	555.04523	1025.7124	1030.9342	547.05872	1032.55371	1145.95129	782.39221	683.85651	901.20038	817.89001	488.73419	938.04657	766.62726	303.67426	970.6947	784.50415	82.85398	1017.48346	771.91345	56.46706	1080.87024	922.20844	54.78529	959.28333	657.98901	671.91425	1280.23987	637.85364	460.67276	1243.94446	572.62427	284.14682	1259.47705	526.64246	94.79966	1228.55359	481.86618	41.3707	1178.47913	674.94513	34.88742	1235.0188	677.95831	1800.53857	1065.11157	NaN	NaN	NaN	NaN	NaN	NaN
